HIERARCHY
ROOT Hips
{
	OFFSET 0.000000 0.000000 0.000000 
	CHANNELS 6 Xposition Yposition Zposition Yrotation Zrotation Xrotation 
	JOINT Lumbar
	{
		OFFSET 0.000000 0.000000 0.000000 
		CHANNELS 3 Zrotation Xrotation Yrotation
		JOINT Neck
		{
			OFFSET 0.000000 0.445665 0.000000 
			CHANNELS 3 Zrotation Xrotation Yrotation
			End Site
			{
				OFFSET 0.000000 0.227535 0.000000 
			}
		}
		JOINT RightShoulder
		{
			OFFSET 0.019635 0.377685 0.194865 
			CHANNELS 3 Zrotation Xrotation Yrotation
			JOINT RightElbow
			{
				OFFSET 0.000000 -0.243375 0.000000 
				CHANNELS 2 Zrotation Yrotation
				JOINT RightWrist
				{
					OFFSET 0.000000 -0.264825 0.000000 
					CHANNELS 2 Zrotation Xrotation
					End Site
					{
						OFFSET 0.006600 -0.176220 0.000990 
					}
				}
			}
		}
		JOINT LeftShoulder
		{
			OFFSET 0.019635 0.377685 -0.194865 
			CHANNELS 3 Zrotation Xrotation Yrotation
			JOINT LeftElbow
			{
				OFFSET 0.000000 -0.243375 0.000000 
				CHANNELS 2 Zrotation Yrotation
				JOINT LeftWrist
				{
					OFFSET 0.000000 -0.264825 0.000000 
					CHANNELS 2 Zrotation Xrotation
					End Site
					{
						OFFSET 0.006600 -0.176220 -0.000990 
					}
				}
			}
		}
	}
	JOINT RightHip
	{
		OFFSET 0.052140 -0.069960 0.075570 
		CHANNELS 3 Zrotation Xrotation Yrotation
		JOINT RightKnee
		{
			OFFSET 0.000000 -0.402270 0.000000 
			CHANNELS 1 Zrotation
			JOINT RightAnkle
			{
				OFFSET 0.000000 -0.404085 0.000000 
				CHANNELS 3 Zrotation Xrotation Yrotation
				End Site
				{
					OFFSET 0.204105 -0.089430 0.008415 
				}
			}
		}
	}
	JOINT LeftHip
	{
		OFFSET 0.052140 -0.069960 -0.075570 
		CHANNELS 3 Zrotation Xrotation Yrotation
		JOINT LeftKnee
		{
			OFFSET 0.000000 -0.402270 0.000000 
			CHANNELS 1 Zrotation
			JOINT LeftAnkle
			{
				OFFSET 0.000000 -0.404085 0.000000 
				CHANNELS 3 Zrotation Xrotation Yrotation
				End Site
				{
					OFFSET 0.204105 -0.089430 -0.008415 
				}
			}
		}
	}
}
MOTION
Frames: 31
Frame Time: 0.02
-0.62276 0.95201 -0.03032 232.52166 0 1.06949 6.01517 -0.13725 4.39436 -28.29431 -3.5372 -2.58549 9.62747 -14.55719 27.28451 93.01602 76.3056 29.53088 -4.17105 20.08052 22.44634 -42.72981 107.62716 -81.54542 -16.33913 4.10302 1.59814 1.14516 15.22335 -26.20966 13.95026 -9.25554 -7.24995 9.85025 4.48984 -40.12829 -28.38499 9.60931 4.95023 4.07636
-0.62724 0.95048 -0.04143 235.28065 0 0.28235 5.23362 0.51626 3.46423 -27.35964 -2.89753 -2.66674 8.60616 -15.09205 27.23294 93.69024 76.45823 29.32834 -4.16838 19.44079 22.17002 -43.21357 107.68397 -82.72085 -17.06518 4.29834 1.30157 2.46103 12.99735 -25.37989 13.60403 -9.4905 -7.82106 11.7617 4.71167 -39.75663 -30.07295 9.11668 5.08821 4.6139
-0.6307 0.94838 -0.05259 238.13396 0 -0.45451 4.32387 1.22311 2.49892 -26.26242 -2.28633 -2.70282 7.43313 -15.56259 27.0605 94.38272 76.55479 29.25872 -4.17815 18.71257 21.86798 -43.71022 107.81808 -83.75822 -17.80932 4.4104 1.15513 3.70681 10.70242 -24.65366 13.36167 -9.73714 -8.36167 13.77647 4.75708 -38.70676 -31.70446 8.53547 5.22913 5.2534
-0.63457 0.94661 -0.06364 240.92047 0 -1.1834 3.48101 1.88853 1.57883 -25.26126 -1.68038 -2.75555 6.35057 -16.04581 26.94568 95.04852 76.67956 29.12384 -4.18153 18.03361 21.5824 -44.18413 107.90952 -84.83937 -18.52628 4.55868 0.9493 4.95044 8.48037 -23.89418 13.07263 -9.96649 -8.92751 15.68559 4.87909 -37.84455 -33.25525 8.00181 5.37019 5.8772
-0.63865 0.94453 -0.07508 243.81485 0 -2.0425 2.59853 2.62733 0.53069 -24.16517 -0.99385 -2.82657 5.1744 -16.6006 26.82006 95.79446 76.79233 29.00706 -4.18821 17.31649 21.27791 -44.73427 108.03198 -86.0134 -19.33184 4.71695 0.71166 6.33938 6.08444 -23.08134 12.77794 -10.22743 -9.44513 17.8492 5.0119 -37.47504 -35.25811 7.43451 5.5084 6.38695
-0.64205 0.94296 -0.08572 246.50549 0 -2.61839 1.76995 3.22578 -0.25822 -23.22711 -0.48334 -2.84857 4.15723 -16.99136 26.68967 96.37827 76.92099 28.88304 -4.19025 16.65637 21.00711 -45.12604 108.10985 -86.95139 -19.9518 4.83246 0.57355 7.40705 4.02942 -22.40172 12.5214 -10.43217 -10.0527 19.50581 5.08006 -35.94652 -36.30913 6.91794 5.65109 7.14328
-0.64394 0.94297 -0.09419 248.59491 0 -2.42486 1.11455 3.42172 -0.31063 -22.78445 -0.45283 -2.73928 3.6287 -16.93237 26.55538 96.49167 77.05736 28.73213 -4.18443 16.19301 20.82488 -45.08653 108.02868 -87.33164 -20.08125 4.86225 0.67721 7.62038 2.98725 -22.07338 12.34027 -10.48475 -10.95756 19.72346 5.03714 -31.10656 -34.69467 6.55555 5.81624 8.67434
-0.64517 0.94352 -0.10183 250.47701 0 -1.94821 0.51963 3.4748 -0.10202 -22.50308 -0.59902 -2.58298 3.26355 -16.71226 26.42394 96.44387 77.22027 28.56558 -4.1721 15.78687 20.67915 -44.88505 107.90294 -87.46724 -20.01835 4.84944 0.87461 7.51002 2.28169 -21.87379 12.19526 -10.48206 -11.94698 19.42905 4.93233 -25.17147 -32.1349 6.24897 5.98359 10.42974
-0.64665 0.94382 -0.10982 252.46402 0 -1.60069 -0.09817 3.59435 -0.02045 -22.13593 -0.66406 -2.45268 2.81608 -16.57395 26.30411 96.48148 77.40327 28.38968 -4.15762 15.34327 20.5234 -44.75094 107.80873 -87.67379 -20.0242 4.84788 1.02568 7.53736 1.38561 -21.60834 12.0371 -10.5036 -12.87087 19.37649 4.83998 -19.92131 -30.03732 5.9221 6.14231 12.00068
-0.64831 0.94408 -0.11797 254.41248 0 -1.24856 -0.74047 3.70916 0.09387 -21.81655 -0.73291 -2.30207 2.39768 -16.39803 26.12547 96.4693 77.44908 28.28645 -4.16518 14.94538 20.33895 -44.64306 107.66994 -88.0438 -20.10603 4.87734 1.19705 7.60129 0.64209 -21.37568 11.86861 -10.52891 -13.90738 19.28775 4.8046 -13.86758 -27.79099 5.57067 6.33276 13.91322
-0.64946 0.94458 -0.12556 256.3868 0 -0.8406 -1.31502 3.79933 0.20428 -21.43711 -0.83631 -2.18216 1.95907 -16.26203 26.07178 96.52131 77.78709 28.02812 -4.12505 14.46645 20.22344 -44.4427 107.61201 -88.01917 -19.98816 4.83362 1.34743 7.51389 -0.33397 -21.10634 11.72904 -10.53317 -14.73066 19.15309 4.64179 -9.22323 -25.6424 5.28482 6.45837 15.17919
-0.64941 0.94561 -0.13188 258.51586 0 -0.338 -1.72169 3.85486 0.22433 -20.86268 -0.9838 -2.16778 1.43011 -16.28466 26.36105 96.79833 78.93229 27.33043 -3.95499 13.75584 20.28744 -44.01894 107.79086 -86.94595 -19.32576 4.5943 1.40723 7.08052 -2.07149 -20.6831 11.6587 -10.49342 -14.93718 19.00017 4.11285 -8.85669 -23.89333 5.16707 6.39764 14.48907
-0.64888 0.94685 -0.13766 260.67141 0 0.20884 -2.0604 3.89032 0.23424 -20.22168 -1.16096 -2.1846 0.87547 -16.35191 26.77677 97.14393 80.37057 26.47938 -3.73683 12.96146 20.41966 -43.50873 108.05139 -85.48803 -18.4758 4.28387 1.44358 6.50777 -4.04729 -20.22192 11.61602 -10.43425 -14.92764 18.82054 3.46441 -9.92916 -22.29356 5.11375 6.27279 13.15942
-0.64856 0.94798 -0.14365 262.79302 0 0.72896 -2.42714 3.93597 0.25968 -19.60452 -1.33014 -2.18106 0.32909 -16.39287 27.13617 97.45253 81.6693 25.70757 -3.54078 12.20131 20.52255 -43.04346 108.27285 -84.21939 -17.73869 4.00913 1.49641 6.0039 -5.88952 -19.79142 11.56134 -10.3836 -15.02204 18.66454 2.89055 -10.26687 -20.69355 5.03089 6.18174 12.20077
-0.64826 0.94922 -0.14975 265.00025 0 1.28741 -2.80547 3.97302 0.24939 -19.01772 -1.48378 -2.20119 -0.19956 -16.45259 27.49097 97.77994 82.99195 24.89475 -3.3444 11.45744 20.62123 -42.55003 108.50247 -82.88173 -16.88079 3.71897 1.52858 5.46515 -7.82717 -19.30873 11.50564 -10.33241 -15.09535 18.44537 2.22788 -10.90089 -18.77894 4.95088 6.07118 10.91977
-0.6478 0.95027 -0.15549 267.03772 0 1.77221 -3.14232 4.02399 0.3061 -18.35259 -1.67265 -2.18101 -0.77049 -16.48714 27.88509 98.08683 84.33885 24.13142 -3.1362 10.66138 20.74238 -42.09514 108.73329 -81.5989 -16.22935 3.44414 1.59628 4.97037 -9.62655 -18.92405 11.45806 -10.27833 -15.15986 18.35418 1.72384 -11.28151 -17.56252 4.8797 5.98587 10.14407
-0.64708 0.95077 -0.16047 268.6033 0 2.04623 -3.39811 4.12837 0.56287 -17.46291 -1.96645 -2.03391 -1.47718 -16.43175 28.35862 98.31856 85.6393 23.54086 -2.91739 9.72083 20.92617 -41.78194 108.96294 -80.57087 -16.22104 3.23357 1.77285 4.63152 -10.99063 -18.81861 11.42668 -10.22228 -15.25513 18.65845 1.67796 -10.55154 -18.28462 4.81568 5.98676 11.01574
-0.64621 0.95108 -0.16508 269.99702 0 2.24224 -3.6115 4.24634 0.88363 -16.50051 -2.2909 -1.847 -2.22177 -16.35196 28.86656 98.52843 86.96128 23.00666 -2.68669 8.73392 21.12677 -41.50787 109.18841 -79.61167 -16.42263 3.04037 1.98443 4.34355 -12.20761 -18.81251 11.40223 -10.16401 -15.34807 19.0882 1.79812 -9.53385 -19.70035 4.75841 6.0149 12.39901
-0.6454 0.95148 -0.16981 271.46888 0 2.47061 -3.83376 4.35219 1.1657 -15.58664 -2.59076 -1.68369 -2.93305 -16.29057 29.35817 98.75016 88.30119 22.44647 -2.45445 7.78209 21.30824 -41.20852 109.40576 -78.61507 -16.5116 2.83631 2.17641 4.03338 -13.49112 -18.76076 11.37407 -10.10619 -15.44034 19.44 1.84824 -8.69153 -20.77222 4.69867 6.03029 13.4842
-0.64463 0.95186 -0.17475 272.94342 0 2.71491 -4.09816 4.48218 1.4887 -14.60507 -2.93718 -1.49778 -3.71244 -16.20029 29.85902 98.96585 89.53612 21.87868 -2.24888 6.76964 21.54082 -40.94111 109.66788 -77.62722 -16.66768 2.64175 2.38378 3.71323 -14.78616 -18.71013 11.34926 -10.05005 -15.53285 19.8796 1.87027 -7.70871 -21.96896 4.63838 6.04585 14.82407
-0.64374 0.95222 -0.17916 274.36868 0 2.90543 -4.26479 4.56561 1.74107 -13.74823 -3.19297 -1.34957 -4.35939 -16.16316 30.34475 99.18833 90.98874 21.34689 -1.98676 5.87177 21.66979 -40.61333 109.83514 -76.64691 -16.73498 2.43309 2.56697 3.42907 -16.01655 -18.68097 11.31874 -9.99012 -15.62659 20.16562 1.99304 -6.93365 -23.0693 4.58039 6.06728 15.76329
-0.64262 0.95258 -0.18226 275.72043 0 2.97856 -4.17919 4.51548 1.78847 -13.25303 -3.19476 -1.31063 -4.62578 -16.28426 30.79595 99.43196 93.05323 20.85859 -1.56139 5.31689 21.50916 -40.14289 109.73651 -75.63437 -16.5224 2.17671 2.68147 3.22205 -17.12492 -18.68974 11.27087 -9.92056 -15.72957 20.00497 2.34324 -6.78158 -23.72676 4.5242 6.10689 15.47143
-0.64137 0.9529 -0.18484 277.02365 0 2.99781 -3.99567 4.41834 1.76184 -12.88655 -3.1032 -1.31133 -4.75902 -16.45818 31.22413 99.683 95.33001 20.41189 -1.08163 4.87644 21.24258 -39.60196 109.54258 -74.63505 -16.214 1.90708 2.7695 3.05185 -18.16747 -18.71672 11.21687 -9.84734 -15.83396 19.68376 2.79128 -6.84637 -24.26312 4.47088 6.14949 14.76045
-0.64016 0.95322 -0.18761 278.33665 0 3.03353 -3.85243 4.34408 1.76497 -12.46158 -3.05204 -1.29724 -4.9561 -16.60444 31.65585 99.93275 97.49962 19.97626 -0.63356 4.37411 21.02457 -39.07503 109.39576 -73.65633 -15.93582 1.64643 2.86514 2.87225 -19.22659 -18.73315 11.16546 -9.77568 -15.9353 19.43141 3.20219 -6.81722 -24.85993 4.41706 6.18628 14.24601
-0.63907 0.95361 -0.19057 279.69922 0 3.10019 -3.72531 4.26436 1.78545 -12.03304 -3.01144 -1.26974 -5.13833 -16.76644 32.13067 100.17464 99.72182 19.4214 -0.1556 3.91207 20.80802 -38.63615 109.23483 -72.57041 -15.70912 1.37249 2.97984 2.66428 -20.34045 -18.76104 11.11509 -9.70424 -16.04653 19.20225 3.58915 -6.75517 -25.46158 4.35774 6.24563 13.72901
-0.63767 0.95385 -0.19301 280.9446 0 3.09088 -3.54216 4.18409 1.75295 -11.64464 -2.92512 -1.27813 -5.32201 -16.90709 32.49401 100.4329 101.87642 19.11717 0.27284 3.39355 20.55976 -37.98333 109.07816 -71.70634 -15.36479 1.12458 3.04912 2.52238 -21.32226 -18.77006 11.06106 -9.63166 -16.13766 18.88314 4.04543 -6.82208 -26.01106 4.31345 6.25475 13.10421
-0.63558 0.95371 -0.19418 281.91814 0 2.88295 -3.22632 4.11902 1.57847 -11.32666 -2.74513 -1.39298 -5.51909 -16.98753 32.68671 100.75143 103.86334 19.55535 0.5513 2.69484 20.27876 -36.86887 108.97793 -71.48016 -14.58868 0.93633 2.99017 2.56344 -21.99235 -18.70448 10.9977 -9.55561 -16.17222 18.37094 4.68236 -7.14476 -26.47956 4.28434 6.15536 12.34452
-0.63315 0.95342 -0.19485 282.7686 0 2.60119 -2.85805 4.05412 1.3554 -11.04711 -2.52055 -1.53962 -5.72601 -17.0422 32.74129 101.08271 105.76267 20.23365 0.77803 1.93528 19.96479 -35.51946 108.88108 -71.46856 -13.72033 0.77698 2.88778 2.66765 -22.52553 -18.62165 10.93081 -9.47873 -16.18659 17.77065 5.38211 -7.59917 -26.89025 4.27498 5.99958 11.47841
-0.63081 0.9532 -0.19575 283.65042 0 2.35493 -2.51526 3.98551 1.16337 -10.75566 -2.30965 -1.66066 -5.94389 -17.10165 32.77516 101.39773 107.65403 20.76092 1.02825 1.20081 19.64589 -34.20529 108.76898 -71.34298 -12.9793 0.61517 2.81147 2.73652 -23.09814 -18.5587 10.86616 -9.40314 -16.21084 17.19888 6.04396 -8.02646 -27.30165 4.2734 5.84896 10.61725
-0.62876 0.95297 -0.19663 284.63516 0 2.09851 -2.16203 3.93008 0.93124 -10.44344 -2.12265 -1.82997 -6.09343 -17.19389 33.16877 101.75892 109.74982 21.46293 1.28022 0.47942 19.4042 -33.19474 108.71237 -71.29805 -11.87651 0.41013 2.70837 2.83492 -23.76511 -18.4477 10.79923 -9.32382 -16.23252 16.66803 6.74989 -8.32575 -27.81615 4.20131 5.78414 9.91946
-0.62602 0.95274 -0.19744 285.37573 0 1.84644 -1.81939 3.84848 0.77172 -10.1841 -1.8773 -1.90598 -6.38757 -17.20892 32.77048 102.02471 111.40215 21.86204 1.51587 -0.28302 18.99925 -31.49185 108.5411 -71.12258 -11.50402 0.29932 2.65 2.88608 -24.20321 -18.42983 10.73554 -9.25183 -16.25429 16.03582 7.37626 -8.91656 -28.10496 4.28058 5.52811 8.86855
